<svg width="24" height="21" viewBox="0 0 24 21" fill="none" xmlns="http://www.w3.org/2000/svg">
<path d="M7.58175 14.1058H7.58282C7.58372 14.1058 7.58462 14.1056 7.58552 14.1056H20.0849C20.3926 14.1056 20.6632 13.9015 20.7477 13.6056L23.5054 3.95386C23.5648 3.74578 23.5232 3.52208 23.393 3.34936C23.2627 3.17665 23.0589 3.07503 22.8425 3.07503H5.99179L5.49896 0.857243C5.42877 0.541801 5.14905 0.317383 4.82589 0.317383H0.689413C0.30862 0.317383 0 0.626003 0 1.0068C0 1.38759 0.30862 1.69621 0.689413 1.69621H4.27292C4.36018 2.08921 6.63129 12.3094 6.76199 12.8974C6.02931 13.2159 5.5153 13.9464 5.5153 14.7951C5.5153 15.9355 6.44314 16.8633 7.58354 16.8633H20.0849C20.4657 16.8633 20.7743 16.5547 20.7743 16.1739C20.7743 15.7931 20.4657 15.4845 20.0849 15.4845H7.58354C7.20347 15.4845 6.89413 15.1751 6.89413 14.7951C6.89413 14.4155 7.20239 14.1067 7.58175 14.1058ZM21.9285 4.45386L19.5648 12.7268H8.13651L6.29807 4.45386H21.9285Z" fill="#EEE4B3"/>
<path d="M6.89429 18.9315C6.89429 20.0719 7.82212 20.9998 8.96253 20.9998C10.1029 20.9998 11.0308 20.0719 11.0308 18.9315C11.0308 17.7911 10.1029 16.8633 8.96253 16.8633C7.82212 16.8633 6.89429 17.7911 6.89429 18.9315ZM8.96253 18.2421C9.3426 18.2421 9.65194 18.5514 9.65194 18.9315C9.65194 19.3116 9.3426 19.6209 8.96253 19.6209C8.58245 19.6209 8.27311 19.3116 8.27311 18.9315C8.27311 18.5514 8.58245 18.2421 8.96253 18.2421Z" fill="#EEE4B3"/>
<path d="M16.6377 18.9315C16.6377 20.0719 17.5655 20.9998 18.7059 20.9998C19.8463 20.9998 20.7742 20.0719 20.7742 18.9315C20.7742 17.7911 19.8463 16.8633 18.7059 16.8633C17.5655 16.8633 16.6377 17.7911 16.6377 18.9315ZM18.7059 18.2421C19.086 18.2421 19.3953 18.5514 19.3953 18.9315C19.3953 19.3116 19.086 19.6209 18.7059 19.6209C18.3259 19.6209 18.0165 19.3116 18.0165 18.9315C18.0165 18.5514 18.3259 18.2421 18.7059 18.2421Z" fill="#EEE4B3"/>
</svg>
