<svg width="74" height="74" viewBox="0 0 74 74" fill="none" xmlns="http://www.w3.org/2000/svg">
<path d="M19.6562 15.0312H26.5938V17.3438H19.6562V15.0312Z" fill="#C69366"/>
<path d="M15.0312 15.0312H17.3438V17.3438H15.0312V15.0312Z" fill="#C69366"/>
<path d="M8.77131 61.2812H8.09375C6.81841 61.2812 5.78125 62.3184 5.78125 63.5938V65.9062C5.78125 67.1816 6.81841 68.2188 8.09375 68.2188H8.77131C9.3795 68.2188 9.97612 67.9713 10.4062 67.5412L13.1974 64.75L10.4062 61.9588C9.97612 61.5287 9.3795 61.2812 8.77131 61.2812ZM8.77131 65.9062H8.09375V63.5938H8.77131L9.92756 64.75L8.77131 65.9062Z" fill="#C69366"/>
<path d="M21.9688 61.2812H19.6562C18.3809 61.2812 17.3438 62.3184 17.3438 63.5938V65.9062C17.3438 67.1816 18.3809 68.2188 19.6562 68.2188H21.9688C23.2441 68.2188 24.2812 67.1816 24.2812 65.9062V63.5938C24.2812 62.3184 23.2441 61.2812 21.9688 61.2812ZM19.6562 65.9062V63.5938H21.9688L21.9711 65.9062H19.6562Z" fill="#C69366"/>
<path d="M33.5312 61.2812H32.8537C32.2455 61.2812 31.6489 61.5287 31.2187 61.9588L28.4276 64.75L31.2187 67.5412C31.6489 67.9713 32.2455 68.2188 32.8537 68.2188H33.5312C34.8066 68.2188 35.8437 67.1816 35.8437 65.9062V63.5938C35.8437 62.3184 34.8066 61.2812 33.5312 61.2812ZM32.8537 65.9062L31.6974 64.75L32.8537 63.5938H33.5312L33.5335 65.9062H32.8537Z" fill="#C69366"/>
<path d="M17.3438 26H5.78125V32.9375H17.3438V26ZM15.0312 30.625H8.09375V28.3125H15.0312V30.625Z" fill="#C69366"/>
<path d="M19.6562 32.9375H35.8438V26H19.6562V32.9375ZM21.9688 28.3125H33.5312V30.625H21.9688V28.3125Z" fill="#C69366"/>
<path d="M5.78125 42.1875H35.8438V35.25H5.78125V42.1875ZM8.09375 37.5625H33.5312V39.875H8.09375V37.5625Z" fill="#C69366"/>
<path d="M72.8438 1.15625H21.9688V10.4062H6.9375C3.74972 10.4062 1.15625 12.9997 1.15625 16.1875V67.0625C1.15625 70.2503 3.74972 72.8438 6.9375 72.8438H34.6875C37.8753 72.8438 40.4688 70.2503 40.4688 67.0625V61.6339C42.772 64.9107 46.5737 67.0625 50.875 67.0625C57.8877 67.0625 63.5938 61.3564 63.5938 54.3438C63.5938 52.7111 63.2735 51.1548 62.7104 49.7188H72.8438V1.15625ZM70.5312 10.4062H63.5938V3.46875H70.5312V10.4062ZM24.2812 3.46875H61.2812V12.7188H70.5312V38.1562H61.2812V47.0536C60.6233 46.117 59.8487 45.2683 58.9688 44.5399V40.4688H56.6562V43.0287C55.9232 42.6529 55.1508 42.3465 54.3438 42.1176V38.1562H58.9688V35.8438H54.3438C53.0684 35.8438 52.0312 36.8809 52.0312 38.1562V41.684C51.6497 41.6493 51.2658 41.625 50.875 41.625C50.4842 41.625 50.1003 41.6493 49.7188 41.684V38.1562C49.7188 36.8809 48.6816 35.8438 47.4062 35.8438H42.7812V38.1562H47.4062V42.1176C46.5992 42.3465 45.8268 42.6529 45.0938 43.0287V40.4688H42.7812V44.5399C41.9013 45.2683 41.1267 46.117 40.4688 47.0536V16.1875C40.4688 12.9997 37.8753 10.4062 34.6875 10.4062H24.2812V3.46875ZM38.1562 56.6562H3.46875V21.9688H38.1562V56.6562ZM6.9375 12.7188H34.6875C36.5999 12.7188 38.1562 14.2751 38.1562 16.1875V19.6562H3.46875V16.1875C3.46875 14.2751 5.02506 12.7188 6.9375 12.7188ZM34.6875 70.5312H6.9375C5.02506 70.5312 3.46875 68.9749 3.46875 67.0625V58.9688H38.1562V67.0625C38.1562 68.9749 36.5999 70.5312 34.6875 70.5312ZM50.875 64.75C45.1365 64.75 40.4688 60.0822 40.4688 54.3438C40.4688 48.6053 45.1365 43.9375 50.875 43.9375C56.6135 43.9375 61.2812 48.6053 61.2812 54.3438C61.2812 60.0822 56.6135 64.75 50.875 64.75ZM63.5938 47.4062V40.4688H70.5312V47.4062H63.5938Z" fill="#C69366"/>
<path d="M65.9062 5.78125H68.2188V8.09375H65.9062V5.78125Z" fill="#C69366"/>
<path d="M65.9062 42.7812H68.2188V45.0938H65.9062V42.7812Z" fill="#C69366"/>
<path d="M26.5938 5.78125H28.9062V8.09375H26.5938V5.78125Z" fill="#C69366"/>
<path d="M31.2188 5.78125H33.5312V8.09375H31.2188V5.78125Z" fill="#C69366"/>
<path d="M35.8438 5.78125H38.1562V8.09375H35.8438V5.78125Z" fill="#C69366"/>
<path d="M58.9688 17.3438H63.5938V15.0312H58.9688V5.78125H56.6562V15.0312C56.6562 16.3066 57.6934 17.3438 58.9688 17.3438Z" fill="#C69366"/>
<path d="M68.2188 19.6562V16.1875H65.9062V19.6562H56.6562V21.9688H65.9062C67.1816 21.9688 68.2188 20.9316 68.2188 19.6562Z" fill="#C69366"/>
<path d="M45.0938 12.7188H47.4062V8.09375C47.4062 6.81841 46.3691 5.78125 45.0938 5.78125H40.4688V8.09375H45.0938V12.7188Z" fill="#C69366"/>
<path d="M49.7188 5.78125H54.3438V8.09375H49.7188V5.78125Z" fill="#C69366"/>
<path d="M52.0312 15.0312H42.7812V17.3438H52.0312C53.3066 17.3438 54.3438 16.3066 54.3438 15.0312V10.4062H52.0312V15.0312Z" fill="#C69366"/>
<path d="M49.7188 26.5938H45.0938V19.6562H42.7812V26.5938C42.7812 27.8691 43.8184 28.9062 45.0938 28.9062H49.7188V26.5938Z" fill="#C69366"/>
<path d="M47.4062 21.9688V24.2812H49.7188V21.9688H54.3438V19.6562H49.7188C48.4434 19.6562 47.4062 20.6934 47.4062 21.9688Z" fill="#C69366"/>
<path d="M65.9062 26.5938H61.2812V28.9062H65.9062C67.1816 28.9062 68.2188 27.8691 68.2188 26.5938V24.2812H65.9062V26.5938Z" fill="#C69366"/>
<path d="M65.9062 31.2188H68.2188V35.8438H65.9062V31.2188Z" fill="#C69366"/>
<path d="M52.0312 31.2188H47.4062V33.5312H52.0312C53.3066 33.5312 54.3438 32.4941 54.3438 31.2188V24.2812H52.0312V31.2188Z" fill="#C69366"/>
<path d="M42.7812 31.2188H45.0938V33.5312H42.7812V31.2188Z" fill="#C69366"/>
<path d="M58.9688 33.5312H63.5938V31.2188H58.9688V24.2812H56.6562V31.2188C56.6562 32.4941 57.6934 33.5312 58.9688 33.5312Z" fill="#C69366"/>
<path d="M49.8791 58.8206C49.9692 58.8633 50.0688 58.8823 50.1731 58.8633C50.1778 58.8633 50.1778 58.8586 50.1826 58.8586C50.3201 58.4602 50.3249 57.9575 50.0925 57.488C49.8885 57.0754 49.5945 56.8335 49.2578 56.7197C49.2531 56.7197 49.2483 56.7245 49.2531 56.7292C49.4712 56.8762 49.6514 57.0802 49.7795 57.3362C50.0213 57.8342 50.0166 58.3653 49.8648 58.7827C49.8554 58.7969 49.8648 58.8159 49.8791 58.8206Z" fill="#C69366"/>
<path d="M52.3784 47.8182L52.3879 47.8467V47.8514C52.0607 48.0743 51.7477 48.6671 51.9279 49.3453C52.1318 50.1088 52.9949 53.3242 53.2937 54.4434L53.6209 55.6622C53.8248 56.4305 54.1094 56.8525 54.5077 56.9142C54.5077 56.9142 54.5125 56.9142 54.5125 56.9189L54.522 56.9474V56.9521C54.318 57.1513 54.1473 57.6493 53.9387 58.1045C53.7252 58.5693 53.27 59.9778 51.5485 60.637C49.6705 61.3531 47.764 60.9026 46.9578 59.5747C46.4314 58.7068 46.5594 57.526 47.4131 57.047C48.1576 56.6297 48.9544 56.9047 49.2579 57.5165C49.5519 58.1093 49.348 58.7448 49.1061 58.9534C49.0587 58.9961 49.1061 59.0815 49.2199 59.1574C49.7226 59.5036 50.2917 59.4846 50.8371 59.1906C51.539 58.8207 51.7903 58.1804 51.4252 56.8194C51.1264 55.7001 49.7938 50.7396 49.5898 49.9713C49.4096 49.2931 48.8358 48.9374 48.4422 48.909C48.4422 48.909 48.4374 48.909 48.4374 48.9042L48.4279 48.8758C48.4279 48.871 48.4279 48.871 48.4327 48.871L52.3737 47.8135C52.3737 47.8135 52.3784 47.8182 52.3784 47.8182Z" fill="#C69366"/>
<path d="M54.8208 57.4405C54.5979 58.0048 54.2706 58.8205 53.9007 59.4039C53.896 59.4086 53.9055 59.4133 53.9102 59.4086C54.3133 59.0861 54.7259 58.4554 54.9488 57.8958C55.0911 57.5353 55.3993 56.8003 55.5227 56.677C55.5274 56.6722 55.5274 56.6627 55.5179 56.658C55.2808 56.5869 54.7876 56.5299 54.4935 55.4344C54.4935 55.4344 53.0234 49.9522 52.8195 49.1887C52.6582 48.5911 52.8005 48.226 53.0139 47.9841C53.0186 47.9794 53.0139 47.9746 53.0092 47.9746C52.6155 48.0979 52.3594 48.6812 52.5349 49.3499C52.7388 50.1134 54.1853 55.5103 54.1853 55.5103C54.2801 55.866 54.4034 56.1506 54.5505 56.3497C54.6927 56.5489 54.8919 56.7007 55.0816 56.7434C55.1006 56.7481 55.129 56.7481 55.1527 56.7528C55.1622 56.7528 55.167 56.7671 55.1575 56.7718C55.148 56.7813 55.1385 56.7955 55.1243 56.805C55.0294 56.9236 54.9298 57.1654 54.8208 57.4405Z" fill="#C69366"/>
<path d="M55.3518 55.5438V54.9984H55.1479V54.8467H55.7265V54.9984H55.5225V55.5438H55.3518Z" fill="#C69366"/>
<path d="M56.4048 55.5438V55.0174L56.2388 55.5438H56.1439L55.9779 55.0174V55.5438H55.8262V54.8467H56.087L56.2056 55.283L56.3289 54.8467H56.5707V55.5438H56.4048Z" fill="#C69366"/>
<path d="M42.7322 57.6116C42.4951 57.6116 42.2769 57.4645 42.201 57.2274C41.4328 54.9084 41.6082 52.4328 42.7037 50.2466C43.7992 48.065 45.6772 46.4384 47.9963 45.6701C48.2903 45.5705 48.6081 45.7318 48.7076 46.0258C48.8072 46.3198 48.646 46.6376 48.352 46.7372C44.1502 48.1267 41.8691 52.6747 43.2633 56.8717C43.3629 57.1658 43.2017 57.4835 42.9077 57.5831C42.8507 57.6021 42.7891 57.6116 42.7322 57.6116Z" fill="#C69366"/>
<path d="M53.578 63.0518C53.3408 63.0518 53.1227 62.9048 53.0468 62.6677C52.9472 62.3737 53.1085 62.0559 53.4025 61.9563C55.437 61.2829 57.0826 59.8554 58.0453 57.9395C59.008 56.0236 59.1645 53.8515 58.4864 51.817C58.3868 51.523 58.548 51.2052 58.8421 51.1057C59.1361 51.0061 59.4538 51.1673 59.5534 51.4613C60.3217 53.7804 60.1462 56.2559 59.0507 58.4422C57.9552 60.6237 56.0772 62.2504 53.7582 63.0187C53.6965 63.0424 53.6396 63.0518 53.578 63.0518Z" fill="#C69366"/>
</svg>
