<svg width="20" height="20" viewBox="0 0 20 20" fill="none" xmlns="http://www.w3.org/2000/svg">
<path fill-rule="evenodd" clip-rule="evenodd" d="M0 10C0 4.47778 4.47779 0 10 0C15.5229 0 20 4.47746 20 10C20 15.5225 15.5229 20 10 20C4.47779 20 0 15.5222 0 10ZM18.5 10C18.5 5.30585 14.6944 1.5 10 1.5C5.30621 1.5 1.5 5.30621 1.5 10C1.5 14.6938 5.30621 18.5 10 18.5C14.6944 18.5 18.5 14.6941 18.5 10Z" fill="#F3E3B4"/>
<path fill-rule="evenodd" clip-rule="evenodd" d="M8.04735 6.98987C7.75376 6.77199 7.33709 6.79615 7.0708 7.06239C6.77788 7.35525 6.77783 7.83012 7.07069 8.12305L8.93852 9.99127L7.07325 11.8566L7.00063 11.9407C6.78277 12.2343 6.80698 12.6509 7.07325 12.9172C7.36614 13.2101 7.84101 13.2101 8.13391 12.9172L9.99907 11.052L11.8667 12.9201L11.9508 12.9927C12.2444 13.2106 12.6611 13.1864 12.9273 12.9202C13.2203 12.6273 13.2203 12.1524 12.9275 11.8595L11.0597 9.99138L12.9259 8.12521L12.9985 8.04109C13.2164 7.74748 13.1922 7.33082 12.9259 7.06455C12.633 6.77165 12.1581 6.77165 11.8652 7.06455L9.99919 8.93061L8.13146 7.0625L8.04735 6.98987Z" fill="#F3E3B4"/>
</svg>
