<svg width="29" height="20" viewBox="0 0 29 20" fill="none" xmlns="http://www.w3.org/2000/svg">
<path fill-rule="evenodd" clip-rule="evenodd" d="M19.9438 17.7305V8.85526L27.1124 6.04341V14.9184L19.9438 17.7305ZM10.8876 6.04324L18.0563 8.8554V17.731L10.8876 14.9185V6.04324ZM25.7836 4.55949L19 7.22073L12.2164 4.55949L19 1.89825L25.7836 4.55949ZM9 4.76446V15.2352C9 15.8075 9.3536 16.3218 9.89219 16.5332L18.4775 19.9013C18.8131 20.0329 19.1872 20.0329 19.5225 19.9013L28.1075 16.5332C28.6464 16.3218 29 15.8075 29 15.2352V4.76446C29 4.19216 28.6464 3.67792 28.1075 3.46645L19.5225 0.0987486C19.1869 -0.0329162 18.8131 -0.0329162 18.4775 0.0987486L9.89219 3.46645C9.3536 3.67792 9 4.19216 9 4.76446Z" fill="#F3E3B4"/>
<path fill-rule="evenodd" clip-rule="evenodd" d="M1.5 6.66634C1.5 6.2061 1.8731 5.83301 2.33333 5.83301H9.66667C10.1269 5.83301 10.5 6.2061 10.5 6.66634C10.5 7.12658 10.1269 7.49967 9.66667 7.49967H2.33333C1.8731 7.49967 1.5 7.12658 1.5 6.66634Z" fill="#F3E3B4"/>
<path fill-rule="evenodd" clip-rule="evenodd" d="M1.5 14.6663C1.5 14.2061 1.8731 13.833 2.33333 13.833H9.66667C10.1269 13.833 10.5 14.2061 10.5 14.6663C10.5 15.1266 10.1269 15.4997 9.66667 15.4997H2.33333C1.8731 15.4997 1.5 15.1266 1.5 14.6663Z" fill="#F3E3B4"/>
<path fill-rule="evenodd" clip-rule="evenodd" d="M5.5 10.6663C5.5 10.2061 5.8731 9.83301 6.33333 9.83301L9 9.83301C9.46024 9.83301 9.83333 10.2061 9.83333 10.6663C9.83333 11.1266 9.46024 11.4997 9 11.4997L6.33333 11.4997C5.8731 11.4997 5.5 11.1266 5.5 10.6663Z" fill="#F3E3B4"/>
<path fill-rule="evenodd" clip-rule="evenodd" d="M0.166748 10.6663C0.166748 10.2061 0.539844 9.83301 1.00008 9.83301L2.33341 9.83301C2.79365 9.83301 3.16675 10.2061 3.16675 10.6663C3.16675 11.1266 2.79365 11.4997 2.33341 11.4997L1.00008 11.4997C0.539844 11.4997 0.166748 11.1266 0.166748 10.6663Z" fill="#F3E3B4"/>
</svg>
