<svg width="20" height="28" viewBox="0 0 20 28" fill="none" xmlns="http://www.w3.org/2000/svg">
<path fill-rule="evenodd" clip-rule="evenodd" d="M10.9438 25.0645V16.1892L18.1124 13.3774V22.2523L10.9438 25.0645ZM1.8876 13.3772L9.05625 16.1894V25.065L1.8876 22.2525V13.3772ZM16.7836 11.8935L10 14.5547L3.21641 11.8935L10 9.23223L16.7836 11.8935ZM0 12.0984V22.5692C0 23.1415 0.353604 23.6558 0.892189 23.8672L9.47746 27.2352C9.81313 27.3669 10.1872 27.3669 10.5225 27.2352L19.1075 23.8672C19.6464 23.6558 20 23.1415 20 22.5692V12.0984C20 11.5261 19.6464 11.0119 19.1075 10.8004L10.5225 7.43273C10.1869 7.30107 9.81313 7.30107 9.47746 7.43273L0.892189 10.8004C0.353604 11.0119 0 11.5261 0 12.0984Z" fill="#F3E3B4"/>
<circle cx="9.99976" cy="6.66699" r="5.25" fill="#122F21" stroke="#F3E3B4" stroke-width="1.5"/>
<path d="M14.3096 3.52437C14.0558 3.27049 13.6442 3.27055 13.3903 3.52437L9.95002 6.96473L9.10966 6.12437C8.85584 5.87055 8.44427 5.87055 8.19039 6.12437C7.9365 6.37819 7.93657 6.78976 8.19039 7.04364L9.49042 8.34354C9.74424 8.59736 10.1558 8.59736 10.4097 8.34354L14.3096 4.44364C14.5634 4.18982 14.5634 3.77826 14.3096 3.52437Z" fill="#F3E3B4"/>
</svg>
