<svg width="21" height="22" viewBox="0 0 21 22" fill="none" xmlns="http://www.w3.org/2000/svg">
<g clip-path="url(#clip0)">
<path d="M10.499 6.875L10.4971 11.6848C10.4971 11.8675 10.5663 12.042 10.6893 12.1709L13.9738 15.6111L14.9018 14.6389L11.8095 11.4001L11.8115 6.875H10.499Z" fill="#0D794C"/>
<path d="M11.8125 1.375C7.19322 1.375 3.37018 4.96894 2.72989 9.62501H0L3.28125 13.0625L6.5625 9.62501H4.05604C4.68388 5.72945 7.91803 2.75001 11.8125 2.75001C16.155 2.75001 19.6875 6.45069 19.6875 11C19.6875 15.5494 16.1551 19.25 11.8125 19.25C9.37145 19.25 7.10791 18.0926 5.60248 16.0744L4.56812 16.9203C6.32408 19.2742 8.96447 20.625 11.8125 20.625C16.8786 20.625 21 16.3066 21 11C21 5.69341 16.8786 1.37504 11.8125 1.375Z" fill="#0D794C"/>
</g>
<defs>
<clipPath id="clip0">
<rect width="21" height="22" fill="white"/>
</clipPath>
</defs>
</svg>
