<svg width="14" height="14" viewBox="0 0 14 14" fill="none" xmlns="http://www.w3.org/2000/svg">
<g clip-path="url(#clip0)">
<path d="M0.0136585 4.11604C0.0464563 3.37216 0.166749 2.86076 0.339069 2.41762C0.516838 1.94723 0.790329 1.5261 1.14864 1.17601C1.49873 0.820473 1.92264 0.544204 2.38758 0.369213C2.83328 0.196892 3.34202 0.0765988 4.08589 0.0438013C4.83532 0.00822609 5.07323 0 6.97399 0C8.87475 0 9.11266 0.00822609 9.85931 0.0410236C10.6032 0.0738212 11.1146 0.194221 11.5576 0.366435C12.0281 0.544204 12.4492 0.817695 12.7993 1.17601C13.1549 1.5261 13.431 1.95001 13.6061 2.41495C13.7785 2.86076 13.8987 3.36939 13.9315 4.11326C13.9671 4.86269 13.9753 5.10061 13.9753 7.00137C13.9753 8.90213 13.9671 9.14004 13.9343 9.8867C13.9015 10.6306 13.7811 11.142 13.6088 11.5851C13.431 12.0555 13.1549 12.4766 12.7993 12.8267C12.4492 13.1823 12.0253 13.4585 11.5604 13.6335C11.1146 13.8058 10.606 13.9261 9.86198 13.9589C9.11544 13.9918 8.87742 14 6.97666 14C5.0759 14 4.83799 13.9918 4.09134 13.9589C3.34746 13.9261 2.83606 13.8058 2.39303 13.6335C1.45215 13.2698 0.708282 12.5259 0.344518 11.5851C0.172304 11.1393 0.0519047 10.6306 0.0191069 9.8867C-0.01369 9.14004 -0.0219164 8.90213 -0.0219164 7.00137C-0.0219164 5.10061 -0.0191383 4.86269 0.0136585 4.11604ZM1.27439 9.832C1.30451 10.5157 1.41936 10.8849 1.51508 11.1311C1.75032 11.741 2.23438 12.225 2.84428 12.4603C3.09043 12.556 3.46231 12.6709 4.14336 12.7009C4.88179 12.7338 5.10325 12.7419 6.97121 12.7419C8.83917 12.7419 9.06341 12.7338 9.79917 12.7009C10.4829 12.6709 10.8521 12.556 11.0982 12.4603C11.4018 12.3481 11.678 12.1703 11.9023 11.9379C12.1347 11.7109 12.3125 11.4374 12.4247 11.1339C12.5204 10.8877 12.6352 10.5157 12.6653 9.83478C12.6982 9.09635 12.7063 8.87478 12.7063 7.00682C12.7063 5.13885 12.6982 4.91461 12.6653 4.17896C12.6352 3.49524 12.5204 3.12602 12.4247 2.87988C12.3125 2.57626 12.1347 2.3001 11.8995 2.07575C11.6726 1.84329 11.3991 1.66552 11.0955 1.55345C10.8493 1.45773 10.4773 1.34288 9.79639 1.31276C9.05796 1.27996 8.83639 1.27173 6.96854 1.27173C5.0978 1.27173 4.87634 1.27996 4.14059 1.31276C3.45686 1.34288 3.08765 1.45773 2.84151 1.55345C2.538 1.66552 2.26173 1.84329 2.03749 2.07575C1.80502 2.30277 1.62725 2.57626 1.51508 2.87988C1.41936 3.12602 1.30451 3.49791 1.27439 4.17896C1.24159 4.91739 1.23336 5.13885 1.23336 7.00682C1.23336 8.87478 1.24159 9.09357 1.27439 9.832Z" fill="#F3E3B4"/>
<path d="M6.97391 3.40527C8.95939 3.40527 10.5703 5.01609 10.5703 7.00168C10.5703 8.98727 8.95939 10.5981 6.97391 10.5981C4.98832 10.5981 3.3775 8.98727 3.3775 7.00168C3.3775 5.01609 4.98832 3.40527 6.97391 3.40527ZM6.97391 9.33458C8.26199 9.33458 9.30681 8.28986 9.30681 7.00168C9.30681 5.71349 8.26199 4.66878 6.97391 4.66878C5.68572 4.66878 4.64101 5.71349 4.64101 7.00168C4.64101 8.28986 5.68572 9.33458 6.97391 9.33458Z" fill="#F3E3B4"/>
<path d="M2.39564 3.26245C2.39564 3.72611 2.77158 4.10205 3.23535 4.10205C3.699 4.10205 4.07495 3.72611 4.07495 3.26245C4.07495 2.79869 3.699 2.42285 3.23535 2.42285C2.77158 2.42285 2.39564 2.79869 2.39564 3.26245Z" fill="#F3E3B4"/>
</g>
<defs>
<clipPath id="clip0">
<rect width="14" height="14" fill="white" transform="matrix(-1 0 0 1 14 0)"/>
</clipPath>
</defs>
</svg>
