<svg width="19" height="19" viewBox="0 0 19 19" fill="none" xmlns="http://www.w3.org/2000/svg">
<circle cx="9.5" cy="9.5" r="8.5" fill="#6C1327" stroke="#6C1327" stroke-width="1.5"/>
<path d="M8.80245 12.634C8.86554 12.6639 8.93526 12.6771 9.00831 12.6639C9.01163 12.6639 9.01163 12.6605 9.01495 12.6605C9.11124 12.3816 9.11456 12.0297 8.95186 11.701C8.80909 11.4121 8.60323 11.2428 8.36749 11.1631C8.36417 11.1631 8.36085 11.1664 8.36417 11.1697C8.5169 11.2727 8.64307 11.4154 8.73272 11.5947C8.90206 11.9434 8.89874 12.3152 8.79249 12.6074C8.78585 12.6174 8.79249 12.6307 8.80245 12.634Z" fill="#F3E3B4"/>
<path d="M10.5524 4.93105L10.559 4.95098V4.9543C10.3299 5.11035 10.1108 5.52539 10.237 6.00019C10.3797 6.53477 10.984 8.78594 11.1932 9.56953L11.4223 10.4228C11.5651 10.9607 11.7643 11.2562 12.0432 11.2994C12.0432 11.2994 12.0465 11.2994 12.0465 11.3027L12.0532 11.3227V11.326C11.9104 11.4654 11.7909 11.8141 11.6448 12.1328C11.4954 12.4582 11.1766 13.4443 9.97134 13.9059C8.6565 14.4072 7.32174 14.0918 6.75728 13.1621C6.38873 12.5545 6.47838 11.7277 7.07603 11.3924C7.59732 11.1002 8.15513 11.2928 8.36763 11.7211C8.57349 12.1361 8.43072 12.5811 8.26138 12.7271C8.22818 12.757 8.26138 12.8168 8.34107 12.8699C8.69302 13.1123 9.09146 13.099 9.4733 12.8932C9.9647 12.6342 10.1407 12.1859 9.88502 11.233C9.67584 10.4494 8.74283 6.97637 8.60006 6.43848C8.47388 5.96367 8.07213 5.71465 7.79654 5.69473C7.79654 5.69473 7.79322 5.69473 7.79322 5.69141L7.78658 5.67148C7.78658 5.66816 7.78658 5.66816 7.7899 5.66816L10.5491 4.92773C10.5491 4.92773 10.5524 4.93105 10.5524 4.93105Z" fill="#F3E3B4"/>
<path d="M12.2624 11.6684C12.1063 12.0635 11.8772 12.6346 11.6182 13.043C11.6149 13.0463 11.6215 13.0496 11.6249 13.0463C11.9071 12.8205 12.1959 12.3789 12.352 11.9871C12.4516 11.7348 12.6674 11.2201 12.7538 11.1338C12.7571 11.1305 12.7571 11.1238 12.7504 11.1205C12.5844 11.0707 12.2391 11.0309 12.0332 10.2639C12.0332 10.2639 11.004 6.42558 10.8612 5.89102C10.7483 5.47266 10.8479 5.21699 10.9973 5.04766C11.0006 5.04434 10.9973 5.04102 10.994 5.04102C10.7184 5.12734 10.5391 5.53574 10.662 6.00391C10.8047 6.53848 11.8174 10.317 11.8174 10.317C11.8838 10.566 11.9702 10.7652 12.0731 10.9047C12.1727 11.0441 12.3122 11.1504 12.445 11.1803C12.4583 11.1836 12.4782 11.1836 12.4948 11.1869C12.5014 11.1869 12.5047 11.1969 12.4981 11.2002C12.4915 11.2068 12.4848 11.2168 12.4749 11.2234C12.4084 11.3064 12.3387 11.4758 12.2624 11.6684Z" fill="#F3E3B4"/>
<path d="M12.6345 10.3396V9.95781H12.4917V9.85156H12.8968V9.95781H12.754V10.3396H12.6345Z" fill="#F3E3B4"/>
<path d="M13.3714 10.3396V9.97109L13.2552 10.3396H13.1888L13.0726 9.97109V10.3396H12.9663V9.85156H13.1489L13.2319 10.157L13.3183 9.85156H13.4876V10.3396H13.3714Z" fill="#F3E3B4"/>
<path d="M2.82468 12.1785C2.6303 12.1785 2.45147 12.058 2.38926 11.8636C1.75947 9.96253 1.90331 7.93318 2.80135 6.14098C3.6994 4.35266 5.23891 3.0192 7.13997 2.3894C7.381 2.30776 7.64147 2.43994 7.72311 2.68097C7.80475 2.92201 7.67257 3.18248 7.43154 3.26412C3.98709 4.4032 2.11713 8.13145 3.2601 11.572C3.34174 11.8131 3.20956 12.0735 2.96852 12.1552C2.92187 12.1707 2.87133 12.1785 2.82468 12.1785Z" fill="#F3E3B4"/>
<path d="M11.7154 16.6375C11.5211 16.6375 11.3422 16.5169 11.28 16.3226C11.1984 16.0815 11.3306 15.8211 11.5716 15.7394C13.2394 15.1874 14.5884 14.0172 15.3776 12.4466C16.1668 10.876 16.2951 9.09543 15.7392 7.42763C15.6575 7.18659 15.7897 6.92612 16.0307 6.84448C16.2718 6.76284 16.5322 6.89502 16.6139 7.13605C17.2437 9.03711 17.0998 11.0665 16.2018 12.8587C15.3037 14.647 13.7642 15.9805 11.8632 16.6103C11.8126 16.6297 11.766 16.6375 11.7154 16.6375Z" fill="#F3E3B4"/>
</svg>
