<svg width="18" height="18" viewBox="0 0 18 18" fill="none" xmlns="http://www.w3.org/2000/svg">
<path d="M9 0C4.03594 0 0 4.03594 0 9C0 13.9641 4.03594 18 9 18C13.9641 18 18 13.9641 18 9C18 4.03594 13.9641 0 9 0ZM9 16.9453C4.61953 16.9453 1.05469 13.3805 1.05469 9C1.05469 4.61953 4.61953 1.05469 9 1.05469C13.3805 1.05469 16.9453 4.61953 16.9453 9C16.9453 13.3805 13.3805 16.9453 9 16.9453Z" fill="#0D794C"/>
<path d="M8.26191 12.3191C8.3287 12.3508 8.40253 12.3648 8.47987 12.3508C8.48339 12.3508 8.48339 12.3473 8.48691 12.3473C8.58886 12.052 8.59237 11.6793 8.42011 11.3312C8.26894 11.0254 8.05097 10.8461 7.80136 10.7617C7.79784 10.7617 7.79433 10.7652 7.79784 10.7687C7.95956 10.8777 8.09316 11.0289 8.18808 11.2187C8.36737 11.5879 8.36386 11.9816 8.25136 12.291C8.24433 12.3016 8.25136 12.3156 8.26191 12.3191Z" fill="#0D794C"/>
<path d="M10.1147 4.1627L10.1217 4.18379V4.1873C9.87916 4.35254 9.64713 4.79199 9.78072 5.29473C9.93189 5.86074 10.5717 8.24433 10.7932 9.07402L11.0358 9.97754C11.187 10.5471 11.3979 10.86 11.6932 10.9057C11.6932 10.9057 11.6967 10.9057 11.6967 10.9092L11.7038 10.9303V10.9338C11.5526 11.0814 11.426 11.4506 11.2713 11.7881C11.1131 12.1326 10.7756 13.1768 9.49947 13.6654C8.10729 14.1963 6.694 13.8623 6.09635 12.8779C5.70611 12.2346 5.80104 11.3592 6.43385 11.0041C6.9858 10.6947 7.57643 10.8986 7.80143 11.3521C8.01939 11.7916 7.86822 12.2627 7.68893 12.4174C7.65377 12.449 7.68893 12.5123 7.7733 12.5686C8.14596 12.8252 8.56783 12.8111 8.97213 12.5932C9.49244 12.3189 9.67877 11.8443 9.40807 10.8353C9.18658 10.0057 8.19869 6.32832 8.04752 5.75879C7.91393 5.25605 7.48854 4.99238 7.19674 4.97129C7.19674 4.97129 7.19322 4.97129 7.19322 4.96777L7.18619 4.94668C7.18619 4.94316 7.18619 4.94316 7.18971 4.94316L10.1112 4.15918C10.1112 4.15918 10.1147 4.1627 10.1147 4.1627Z" fill="#0D794C"/>
<path d="M11.9252 11.2955C11.76 11.7139 11.5174 12.3185 11.2432 12.751C11.2397 12.7545 11.2467 12.758 11.2502 12.7545C11.549 12.5154 11.8549 12.0478 12.0201 11.633C12.1256 11.3658 12.3541 10.8209 12.4455 10.7295C12.449 10.726 12.449 10.7189 12.442 10.7154C12.2662 10.6627 11.9006 10.6205 11.6826 9.80839C11.6826 9.80839 10.5928 5.74433 10.4416 5.17832C10.3221 4.73535 10.4276 4.46465 10.5858 4.28535C10.5893 4.28184 10.5858 4.27832 10.5822 4.27832C10.2905 4.36973 10.1006 4.80215 10.2307 5.29785C10.3819 5.86387 11.4541 9.86464 11.4541 9.86464C11.5244 10.1283 11.6158 10.3393 11.7248 10.4869C11.8303 10.6346 11.978 10.7471 12.1186 10.7787C12.1326 10.7822 12.1537 10.7822 12.1713 10.7857C12.1783 10.7857 12.1819 10.7963 12.1748 10.7998C12.1678 10.8068 12.1608 10.8174 12.1502 10.8244C12.0799 10.9123 12.0061 11.0916 11.9252 11.2955Z" fill="#0D794C"/>
<path d="M12.3191 9.88984V9.48555H12.168V9.37305H12.5969V9.48555H12.4457V9.88984H12.3191Z" fill="#0D794C"/>
<path d="M13.0993 9.88984V9.49961L12.9763 9.88984H12.906L12.7829 9.49961V9.88984H12.6704V9.37305H12.8638L12.9517 9.69648L13.0431 9.37305H13.2224V9.88984H13.0993Z" fill="#0D794C"/>
<path d="M2.96387 11.4221C2.78808 11.4221 2.62636 11.3131 2.57011 11.1373C2.00058 9.41814 2.13066 7.58299 2.94277 5.96228C3.75488 4.3451 5.14707 3.13924 6.86621 2.56971C7.08418 2.49588 7.31973 2.61541 7.39355 2.83338C7.46738 3.05135 7.34785 3.28689 7.12988 3.36072C4.01504 4.3908 2.32402 7.76228 3.35762 10.8736C3.43144 11.0916 3.31191 11.3271 3.09394 11.401C3.05176 11.415 3.00605 11.4221 2.96387 11.4221Z" fill="#0D794C"/>
<path d="M11.004 15.4549C10.8282 15.4549 10.6665 15.3459 10.6102 15.1701C10.5364 14.9521 10.6559 14.7166 10.8739 14.6428C12.3821 14.1435 13.602 13.0853 14.3157 11.665C15.0294 10.2447 15.1454 8.63455 14.6427 7.12635C14.5688 6.90838 14.6884 6.67283 14.9063 6.599C15.1243 6.52517 15.3598 6.64471 15.4337 6.86267C16.0032 8.58182 15.8731 10.417 15.061 12.0377C14.2489 13.6549 12.8567 14.8607 11.1376 15.4303C11.0919 15.4478 11.0497 15.4549 11.004 15.4549Z" fill="#0D794C"/>
</svg>
