<svg width="13" height="13" viewBox="0 0 13 13" fill="none" xmlns="http://www.w3.org/2000/svg">
<path d="M11.6071 0H1.39286C0.623602 0 0 0.623602 0 1.39286V11.6071C0 12.3764 0.623602 13 1.39286 13H11.6071C12.3764 13 13 12.3764 13 11.6071V1.39286C13 0.623602 12.3764 0 11.6071 0ZM12.0714 11.6071C12.0714 11.8636 11.8635 12.0714 11.6071 12.0714H1.39286C1.13643 12.0714 0.928562 11.8636 0.928562 11.6071V1.39286C0.928562 1.13643 1.13643 0.928562 1.39286 0.928562H11.6071C11.8636 0.928562 12.0714 1.13643 12.0714 1.39286V11.6071H12.0714Z" fill="#F3E3B4"/>
<path d="M4.17844 2.78613H2.78558C2.52916 2.78613 2.32129 2.994 2.32129 3.25043C2.32129 3.50685 2.52916 3.71472 2.78558 3.71472H4.17844C4.43486 3.71472 4.64273 3.50685 4.64273 3.25043C4.64273 2.994 4.43486 2.78613 4.17844 2.78613Z" fill="#F3E3B4"/>
<path d="M10.2142 2.78613H6.03558C5.77916 2.78613 5.57129 2.994 5.57129 3.25043C5.57129 3.50685 5.77916 3.71472 6.03558 3.71472H10.2142C10.4706 3.71472 10.6784 3.50685 10.6784 3.25043C10.6784 2.994 10.4706 2.78613 10.2142 2.78613Z" fill="#F3E3B4"/>
<path d="M4.17844 6.03613H2.78558C2.52916 6.03613 2.32129 6.244 2.32129 6.50042C2.32129 6.75685 2.52916 6.96469 2.78558 6.96469H4.17844C4.43486 6.96469 4.64273 6.75682 4.64273 6.5004C4.64273 6.24397 4.43486 6.03613 4.17844 6.03613Z" fill="#F3E3B4"/>
<path d="M10.2142 6.03613H6.03558C5.77916 6.03613 5.57129 6.244 5.57129 6.50042C5.57129 6.75685 5.77916 6.96469 6.03558 6.96469H10.2142C10.4706 6.96469 10.6784 6.75682 10.6784 6.5004C10.6784 6.24397 10.4706 6.03613 10.2142 6.03613Z" fill="#F3E3B4"/>
<path d="M4.17844 9.28613H2.78558C2.52916 9.28613 2.32129 9.494 2.32129 9.75043C2.32129 10.0069 2.52916 10.2147 2.78558 10.2147H4.17844C4.43486 10.2147 4.64273 10.0069 4.64273 9.75043C4.64273 9.494 4.43486 9.28613 4.17844 9.28613Z" fill="#F3E3B4"/>
<path d="M10.2142 9.28613H6.03558C5.77916 9.28613 5.57129 9.494 5.57129 9.75043C5.57129 10.0069 5.77916 10.2147 6.03558 10.2147H10.2142C10.4706 10.2147 10.6784 10.0069 10.6784 9.75043C10.6784 9.494 10.4706 9.28613 10.2142 9.28613Z" fill="#F3E3B4"/>
</svg>
