<svg width="228" height="55" viewBox="0 0 228 55" fill="none" xmlns="http://www.w3.org/2000/svg">
<path d="M223.768 28.8931C223.983 28.9644 224.341 28.8931 224.484 28.3233C224.627 27.8246 224.412 27.6822 224.126 27.5397L223.84 27.4685L223.482 28.7507L223.768 28.8931ZM221.979 29.8904C222.337 29.9616 222.408 29.9616 222.48 29.6767L223.052 27.6822C223.124 27.3972 223.124 27.3972 222.766 27.2548L222.838 26.9699L224.699 27.4685C225.2 27.6109 225.629 27.9671 225.486 28.537C225.343 28.9644 224.985 29.2493 224.556 29.2493L224.913 30.389C224.985 30.674 225.128 30.7452 225.271 30.8164L225.2 31.1014L224.412 30.8877C224.269 30.8164 224.126 30.674 224.126 30.4603L223.768 29.2493L223.553 29.1781L223.339 29.9616C223.267 30.2466 223.267 30.2466 223.625 30.389L223.553 30.674L221.979 30.2466V29.8904ZM224.556 26.6137C223.196 26.2575 221.907 26.9699 221.549 28.3233C221.191 29.6767 221.907 30.9589 223.267 31.3151C224.627 31.6712 225.916 30.9589 226.273 29.6055C226.56 28.252 225.916 26.9699 224.556 26.6137ZM224.77 25.9014C226.488 26.4 227.49 28.1096 227.061 29.8904C226.56 31.6 224.842 32.5972 223.052 32.1699C221.335 31.6712 220.332 29.9616 220.762 28.1808C221.263 26.4 222.981 25.4027 224.77 25.9014ZM206.876 35.4466C207.09 36.3726 207.09 37.6548 207.09 37.6548C207.09 37.6548 207.019 37.0849 207.52 35.589L211.457 24.0493C212.459 21.0575 212.459 18.9205 211.099 17.2109L211.17 17.1397L220.762 20.7014V20.8438C218.758 21.4137 217.255 23.052 216.252 26.0438C215.68 27.8246 206.947 53.4685 206.947 53.4685L202.151 51.6877L197.427 28.252C197.212 27.326 197.141 26.0438 197.141 26.0438C197.141 26.0438 197.141 26.6137 196.711 28.1096C196.282 29.463 192.345 41.2164 192.345 41.2164C191.486 44.3507 191.558 46.4877 192.846 48.126L192.775 48.1972L182.539 45.2055V45.063C184.615 44.4931 186.404 42.926 187.335 39.9342L193.777 19.7041C194.779 16.4274 194.492 13.3644 192.703 11.6548L192.775 11.5835L202.223 14.2904L206.876 35.4466ZM174.092 11.0137C169.44 10.0164 166.362 15.5726 164.787 22.7671C163.141 30.3178 163.928 36.2301 168.151 37.1562C172.16 38.0109 175.596 33.0959 177.242 25.5452C178.817 18.2794 178.673 12.0109 174.092 11.0137ZM185.33 27.2548C182.897 37.2986 175.381 44.2794 166.577 42.3562C156.985 40.2904 154.05 31.2438 156.484 20.9863C158.918 10.8712 165.932 4.46026 174.88 5.95615C185.545 7.73697 187.764 17.4246 185.33 27.2548ZM139.019 37.726C134.509 37.5835 134.008 36.3014 131.503 35.7315C129.642 35.3041 128.353 36.0877 127.781 36.8H127.638L128.21 24.4055H128.353C129.284 26.8274 131.861 30.1753 134.939 31.8137C137.659 33.3096 140.522 32.7397 141.882 30.8877C143.099 29.3205 143.457 26.4 141.452 24.4055C139.52 22.4109 136.442 21.0575 133.793 19.1342C128.568 15.1452 128.926 9.73149 130.501 6.73971C132.791 2.53697 137.587 0.827384 141.882 1.25478C144.459 1.53971 145.676 2.18081 147.465 2.75067C149.255 3.32053 150.901 2.96437 151.259 2.8219H151.402L150.543 12.652H150.4C149.469 10.0877 146.391 6.81095 143.099 6.24108C140.236 5.74245 138.661 6.73971 137.945 7.87944C136.871 9.66026 137.372 11.726 139.305 13.0794C142.168 15.074 145.604 16.4986 147.895 18.6356C151.187 21.7699 152.261 27.2548 149.326 32.1699C147.036 35.9452 142.383 37.7972 139.019 37.726ZM122.627 0.756151L122.341 8.52053H122.198C120.981 5.67122 117.831 5.03012 115.04 5.10136L108.956 5.17259L108.812 14.5041L111.89 14.5753C115.97 14.6466 117.187 14.2904 118.69 11.726H118.833L118.476 22.7671H118.332C116.972 19.9178 113.966 19.7041 111.175 19.7041H108.884L108.669 29.9616L115.04 30.1041C119.12 30.1753 121.196 29.0356 122.556 26.6849H122.699L121.41 35.874C113.895 35.6603 105.305 35.589 98.5766 35.874V35.7315C100.08 34.7342 100.939 32.4548 100.939 29.1068L101.153 7.02464C101.153 3.8904 100.939 1.89588 98.7914 0.827384V0.684918C106.092 0.471219 115.398 0.399987 122.627 0.756151ZM81.684 1.82464L92.4924 0.969849V1.11232C89.7008 2.46574 89.9871 4.81643 90.2735 8.59177L91.705 29.8904C92.0629 33.0246 92.8503 35.4466 94.2103 36.0164V36.1589C94.2103 36.1589 91.705 36.3014 88.1977 36.5863C84.7619 36.8712 82.185 37.0849 82.185 37.0849V36.9425C83.4735 36.0877 84.5471 33.452 84.2608 30.2466C84.2608 30.2466 83.3303 16.3562 83.2587 15.2164C83.1156 13.9342 83.2587 13.0082 83.2587 13.0082C83.2587 13.0082 83.1156 14.0055 82.7577 15.074C82.3998 16.2137 75.8145 38.1534 75.8145 38.1534H75.6714C75.6714 38.1534 65.865 20.1315 65.0061 18.6356C64.2903 17.4959 64.004 16.3562 64.004 16.3562C64.004 16.3562 64.3619 17.3534 64.5766 18.7781C64.7914 20.1315 66.5093 32.3123 66.5093 32.3123C67.0819 35.5178 68.7282 37.7972 70.1598 38.2959V38.4383L60.7114 40.0055V39.9342C61.9282 39.0082 62.0714 36.5151 61.6419 33.3808L58.7787 12.2246C58.3493 9.01917 56.7029 6.45478 54.2692 5.67122V5.52875L65.0061 3.6767C65.0061 3.6767 73.9535 19.9178 75.5282 22.3397C76.5303 19.4192 81.684 1.82464 81.684 1.82464ZM36.1598 17.5671L35.2293 30.674L41.7429 28.8931L36.1598 17.5671ZM52.0503 42C49.6882 42.5699 45.7514 43.4959 45.7514 43.4959V43.4246C46.6819 42.5699 47.684 40.5753 46.2524 37.7972L44.105 33.452L34.9429 35.9452L34.585 41.074C34.585 44.137 36.1598 45.4904 37.4482 45.7041V45.8466C37.4482 45.8466 34.5135 46.7726 32.2229 47.4137C30.004 48.126 27.1408 48.9808 27.1408 48.9808L27.0693 48.8383C27.9282 48.0548 28.9303 45.4904 29.0735 42.5699C29.5745 34.5918 30.3619 22.6959 31.0061 17.4246C31.364 14.8603 31.0061 12.4383 29.0019 11.7972V11.6548C29.0019 11.6548 31.7935 10.8712 35.1577 10.0164C38.0208 9.37533 41.385 8.4493 41.385 8.4493L41.4566 8.59177C40.1682 10.3014 41.1703 12.1534 42.3871 14.4329C43.5324 16.6411 53.625 34.8767 54.4124 36.4438C55.9156 39.0082 56.8461 40.0055 58.3493 40.6466V40.789C58.4208 40.6466 54.4124 41.4301 52.0503 42ZM8.8882 22.126C8.38714 20.1315 6.66925 19.063 5.45241 18.9918V18.8493C5.45241 18.8493 8.60188 17.7096 10.8924 16.926C13.2545 16.1425 16.6187 15.0027 16.6187 15.0027L16.6903 15.1452C15.8314 15.9288 15.4019 17.5671 15.9029 19.4904C15.9029 19.4904 20.2693 36.4438 20.8419 38.652C21.4861 40.8603 22.345 42.1425 23.4903 42.2849L23.5619 42.4274C22.9893 42.9972 22.4882 44.4931 21.844 45.8466C21.1998 47.2 19.9114 51.3315 14.8293 53.326C9.31767 55.463 3.66293 54.1808 1.30083 50.263C-0.273908 47.8411 0.0839871 44.3507 2.58925 42.926C4.73662 41.7151 7.09872 42.4986 8.02925 44.2794C8.8882 45.989 8.31557 47.9123 7.59978 48.4822C7.45662 48.6246 7.59978 48.8383 7.95767 49.052C9.46083 50.0493 11.1071 49.9781 12.7535 49.1233C14.8293 48.0548 15.545 46.274 14.4714 42.1425C13.5408 38.937 9.46083 24.4055 8.8882 22.126Z" fill="#EEE4B3"/>
</svg>
