<svg width="51" height="34" viewBox="0 0 51 34" fill="none" xmlns="http://www.w3.org/2000/svg">
<path fill-rule="evenodd" clip-rule="evenodd" d="M50.3182 1.64395C50.3182 0.736022 49.5809 0 48.6712 0H2.5552C1.64559 0 0.908203 0.736022 0.908203 1.64395V32.3311C0.908203 33.239 1.64559 33.975 2.5552 33.975H48.6712C49.5809 33.975 50.3182 33.239 50.3182 32.3311V1.64395ZM2.55585 1.09606H48.6719C48.9751 1.09606 49.2209 1.3414 49.2209 1.64404V32.3311C49.2209 32.6338 48.9751 32.8791 48.6719 32.8791H2.55585C2.25265 32.8791 2.00685 32.6338 2.00685 32.3311V1.64404C2.00685 1.3414 2.25265 1.09606 2.55585 1.09606ZM33.2592 7.67195C33.2592 9.18516 32.0302 10.4119 30.5142 10.4119C28.9982 10.4119 27.7692 9.18516 27.7692 7.67195C27.7692 6.15873 28.9982 4.93203 30.5142 4.93203C32.0302 4.93203 33.2592 6.15873 33.2592 7.67195ZM3.67939 19.7606C3.31056 20.1348 3.10381 20.6391 3.10381 21.1645V30.7827C3.10381 31.335 3.55152 31.7827 4.10381 31.7827H47.1219C47.6741 31.7827 48.1219 31.335 48.1219 30.7827V22.5644C48.1219 21.8366 47.7265 21.1662 47.0895 20.8141L37.7423 15.6464C37.1811 15.3362 36.5053 15.3138 35.9248 15.5863L27.1057 19.7256C26.3198 20.0945 25.3856 19.9142 24.7934 19.2794L16.1803 10.046C15.4044 9.21417 14.0919 9.19612 13.2934 10.0063L3.67939 19.7606Z" fill="#F3E3B4"/>
</svg>
