<svg width="24" height="24" viewBox="0 0 24 24" fill="none" xmlns="http://www.w3.org/2000/svg">
<path d="M18.3639 5.63604C21.8787 9.15076 21.8787 14.8492 18.3639 18.3639C14.8492 21.8787 9.15074 21.8787 5.63604 18.3639C2.12132 14.8492 2.12132 9.15074 5.63604 5.63604C9.15076 2.12132 14.8492 2.12132 18.3639 5.63604" stroke="#0D794C" stroke-width="1.2" stroke-linecap="round" stroke-linejoin="round"/>
<path d="M17.707 18.958C16.272 17.447 14.248 16.5 12 16.5C9.75197 16.5 7.72797 17.447 6.29297 18.959" stroke="#0D794C" stroke-width="1.2" stroke-linecap="round" stroke-linejoin="round"/>
<path d="M13.9884 8.32459C15.0865 9.42274 15.0865 11.2032 13.9884 12.3014C12.8902 13.3995 11.1098 13.3995 10.0116 12.3014C8.91345 11.2032 8.91345 9.42275 10.0116 8.32459C11.1098 7.22644 12.8902 7.22644 13.9884 8.32459" stroke="#0D794C" stroke-width="1.2" stroke-linecap="round" stroke-linejoin="round"/>
</svg>
