<svg width="80" height="80" viewBox="0 0 80 80" fill="none" xmlns="http://www.w3.org/2000/svg">
<path d="M46.25 7.5H48.75V10H46.25V7.5Z" fill="#C69366"/>
<path d="M69.9531 77.2344C70.1406 76.7656 70.0469 76.2344 69.6875 75.875L62.4375 68.625L60.0781 59.2031L61.2969 50.7031C61.3125 50.5625 61.3125 50.4375 61.2969 50.2969L58.7969 36.5781C58.6094 34.625 57.0156 33.1094 55.0625 33C54.6406 33 54.2187 33.0781 53.8125 33.2344V9.25C53.8125 5.79688 51.0156 3 47.5625 3H22.5469C19.0937 3 16.2969 5.79688 16.2969 9.25V24.5781C15.3906 24.2969 14.4062 24.3125 13.5156 24.6406C11.9219 25.1875 10.7344 26.5312 10.3594 28.1875C10 29.7812 10.4844 31.4531 11.6406 32.625L15.3281 36.3125C13.2344 37.375 12.25 39.8281 13.0312 42.0469C12.0469 42.2031 11.125 42.6719 10.4062 43.375C8.53125 45.2344 8.53125 48.2656 10.4062 50.1406L12.4531 52.1875C11.6875 52.4062 10.9688 52.8125 10.4062 53.375C8.54688 55.25 8.54688 58.2656 10.4062 60.1406L15.4062 65.1406C15.6719 65.4063 15.9688 65.625 16.2812 65.8125V66.75C16.2812 70.2031 19.0781 73 22.5312 73H34.5156L39.1562 77.6406C39.3906 77.875 39.7031 78 40.0469 78H68.7969C69.2969 78 69.7656 77.7031 69.9531 77.2344ZM28.7969 5.5H41.2969V8H28.7969V5.5ZM23.7969 40L20.9375 37.1406C20.3437 36.5625 19.6094 36.1406 18.7969 35.9375V26.7656V9.25C18.7969 7.17188 20.4687 5.5 22.5469 5.5H26.2969V9.25C26.2969 9.9375 26.8594 10.5 27.5469 10.5H42.5469C43.2344 10.5 43.7969 9.9375 43.7969 9.25V5.5H47.5469C49.625 5.5 51.2969 7.17188 51.2969 9.25V60.5H23.4062C23.2031 59.6875 22.7812 58.9531 22.1875 58.3594L20.1406 56.3125C22.2031 55.75 23.6094 53.875 23.5937 51.75C23.5937 51.2344 23.5 50.7187 23.3281 50.2344C24.7187 50.0312 25.9375 49.2031 26.6406 48C26.6406 48 28.7188 45.375 26.2969 42.5781C25.4062 41.5469 23.7969 40 23.7969 40ZM13.4062 30.8438C12.8594 30.2812 12.625 29.4844 12.7969 28.7188C12.9687 27.9063 13.5781 27.25 14.3594 26.9844C14.5469 26.9219 14.7656 26.875 14.9687 26.875C15.4375 26.875 15.9062 27.0313 16.2812 27.3125V33.7188L13.4062 30.8438ZM15.9375 38.9062C16.375 38.4844 16.9531 38.25 17.5625 38.25C18.1719 38.25 18.75 38.4844 19.1719 38.9062L24.1719 43.8906C24.6094 44.3281 24.8438 44.9062 24.8594 45.5156C24.8594 45.7969 24.8125 46.0625 24.7031 46.3281C24.5938 46.625 24.4219 46.9062 24.1875 47.1406C23.375 47.9531 22.0781 48.0469 21.1562 47.3281L15.9531 42.1406C15.5156 41.7188 15.2812 41.125 15.2812 40.5312C15.2812 39.9219 15.5156 39.3438 15.9375 38.9062ZM12.1875 48.3594C11.2969 47.4688 11.2969 46.0156 12.1875 45.125C12.625 44.6875 13.2031 44.4531 13.8125 44.4531C14.3281 44.4531 14.8281 44.625 15.2344 44.9531L20.4219 50.125C21.2969 51.0312 21.2656 52.4844 20.3594 53.3594C19.4688 54.2031 18.0781 54.2031 17.2031 53.3594L12.1875 48.3594ZM17.1875 63.3594L12.1875 58.3594C11.3281 57.4375 11.3906 55.9844 12.3125 55.125C13.1875 54.3125 14.5312 54.3125 15.4062 55.125L20.4062 60.125C21.2812 61.0312 21.25 62.4844 20.3437 63.3594C19.4687 64.2188 18.0781 64.2188 17.1875 63.3594ZM22.5469 70.5C20.4687 70.5 18.7969 68.8281 18.7969 66.75V66.5312H18.8125C20.9687 66.5469 22.8594 65.0938 23.4062 63H51.2969V66.75C51.2969 68.8281 49.625 70.5 47.5469 70.5H22.5469ZM40.5625 75.5L38.0625 73H47.5469C51 73 53.7969 70.2031 53.7969 66.75V36.75C53.7969 36.0625 54.3594 35.5 55.0469 35.5C55.7031 35.5 56.2031 36.2344 56.3125 36.9688L58.7812 50.5156L57.5625 59.0625C57.5469 59.2188 57.5469 59.3906 57.5938 59.5469L60.0938 69.5469C60.1562 69.7656 60.2656 69.9688 60.4219 70.125L65.7813 75.4844H40.5625V75.5Z" fill="#C69366"/>
<path d="M43.663 23.3594H40.6369C40.287 23.3594 40.0034 23.6516 40.0034 24.0121C40.0034 24.3726 40.287 24.6649 40.6369 24.6649H43.663C44.253 24.6649 44.7331 25.1596 44.7331 25.7676V28.886C44.7331 29.2465 45.0167 29.5387 45.3665 29.5387C45.7163 29.5387 46 29.2465 46 28.886V25.7676C46 24.4397 44.9516 23.3594 43.663 23.3594V23.3594Z" fill="#C69366"/>
<path d="M25.0121 29.5387C25.3619 29.5387 25.6455 29.2465 25.6455 28.886V25.7676C25.6455 25.1596 26.1256 24.6649 26.7156 24.6649H29.7418C30.0916 24.6649 30.3752 24.3726 30.3752 24.0121C30.3752 23.6516 30.0916 23.3594 29.7418 23.3594H26.7156C25.427 23.3594 24.3787 24.4397 24.3787 25.7676V28.886C24.3787 29.2465 24.6623 29.5387 25.0121 29.5387Z" fill="#C69366"/>
<path d="M29.7418 44.3348H26.7156C26.1256 44.3348 25.6455 43.8401 25.6455 43.232V40.1137C25.6455 39.7532 25.3619 39.4609 25.0121 39.4609C24.6623 39.4609 24.3787 39.7532 24.3787 40.1137V43.232C24.3787 44.5599 25.427 45.6403 26.7156 45.6403H29.7418C30.0916 45.6403 30.3752 45.348 30.3752 44.9875C30.3752 44.627 30.0916 44.3348 29.7418 44.3348Z" fill="#C69366"/>
<path d="M45.3665 39.4609C45.0167 39.4609 44.7331 39.7532 44.7331 40.1137V43.232C44.7331 43.8401 44.253 44.3348 43.663 44.3348H40.6369C40.287 44.3348 40.0034 44.627 40.0034 44.9875C40.0034 45.348 40.287 45.6403 40.6369 45.6403H43.663C44.9516 45.6403 46 44.5599 46 43.232V40.1137C46 39.7532 45.7163 39.4609 45.3665 39.4609Z" fill="#C69366"/>
<path d="M38.8058 28.1463H40.8148C41.0892 28.1463 41.3124 28.3763 41.3124 28.659V30.7293C41.3124 31.0898 41.596 31.382 41.9458 31.382C42.2957 31.382 42.5793 31.0898 42.5793 30.7293V28.659C42.5793 27.6565 41.7877 26.8408 40.8148 26.8408H38.8058C38.456 26.8408 38.1724 27.1331 38.1724 27.4936C38.1724 27.8541 38.456 28.1463 38.8058 28.1463Z" fill="#C69366"/>
<path d="M27.7991 28.659V30.7293C27.7991 31.0898 28.0827 31.382 28.4325 31.382C28.7823 31.382 29.0659 31.0898 29.0659 30.7293V28.659C29.0659 28.3763 29.2892 28.1463 29.5635 28.1463H31.5725C31.9224 28.1463 32.206 27.8541 32.206 27.4936C32.206 27.1331 31.9224 26.8408 31.5725 26.8408H29.5635C28.5906 26.8408 27.7991 27.6565 27.7991 28.659Z" fill="#C69366"/>
<path d="M31.5725 40.766H29.5635C29.2891 40.766 29.0659 40.536 29.0659 40.2533V38.183C29.0659 37.8225 28.7823 37.5303 28.4325 37.5303C28.0827 37.5303 27.7991 37.8225 27.7991 38.183V40.2533C27.7991 41.2559 28.5906 42.0715 29.5635 42.0715H31.5725C31.9224 42.0715 32.206 41.7792 32.206 41.4187C32.206 41.0582 31.9224 40.766 31.5725 40.766Z" fill="#C69366"/>
<path d="M42.5793 40.2533V38.183C42.5793 37.8225 42.2957 37.5303 41.9458 37.5303C41.596 37.5303 41.3124 37.8225 41.3124 38.183V40.2533C41.3124 40.536 41.0892 40.766 40.8148 40.766H38.8058C38.456 40.766 38.1724 41.0582 38.1724 41.4187C38.1724 41.7792 38.456 42.0715 38.8058 42.0715H40.8148C41.7877 42.0715 42.5793 41.2559 42.5793 40.2533Z" fill="#C69366"/>
<path d="M24.4221 34.4994C24.4221 34.8599 24.7057 35.1522 25.0556 35.1522H45.3255C45.6753 35.1522 45.959 34.8599 45.959 34.4994C45.959 34.1389 45.6753 33.8467 45.3255 33.8467H25.0556C24.7057 33.8467 24.4221 34.1389 24.4221 34.4994Z" fill="#C69366"/>
<path d="M32.5 65H37.5V67.5H32.5V65Z" fill="#C69366"/>
</svg>
