<svg width="21" height="22" viewBox="0 0 21 22" fill="none" xmlns="http://www.w3.org/2000/svg">
<g clip-path="url(#clip0)">
<path d="M18.5293 0.325195H15.6771C15.3474 0.325195 15.0801 0.600656 15.0801 0.94043C15.0801 1.2802 15.3474 1.55566 15.6771 1.55566H18.5293C19.0854 1.55566 19.5379 2.02193 19.5379 2.59504V5.53418C19.5379 5.87395 19.8052 6.14941 20.135 6.14941C20.4647 6.14941 20.732 5.87395 20.732 5.53418V2.59504C20.732 1.34345 19.7439 0.325195 18.5293 0.325195V0.325195Z" fill="#F3E3B4"/>
<path d="M0.950548 6.14941C1.28027 6.14941 1.54758 5.87395 1.54758 5.53418V2.59504C1.54758 2.02193 2.00005 1.55566 2.55617 1.55566H5.40839C5.73811 1.55566 6.00542 1.2802 6.00542 0.94043C6.00542 0.600656 5.73811 0.325195 5.40839 0.325195H2.55617C1.34164 0.325195 0.353516 1.34345 0.353516 2.59504V5.53418C0.353516 5.87395 0.620827 6.14941 0.950548 6.14941Z" fill="#F3E3B4"/>
<path d="M5.40839 20.0947H2.55617C2.00005 20.0947 1.54758 19.6285 1.54758 19.0553V16.1162C1.54758 15.7764 1.28027 15.501 0.950548 15.501C0.620827 15.501 0.353516 15.7764 0.353516 16.1162V19.0553C0.353516 20.3069 1.34164 21.3252 2.55617 21.3252H5.40839C5.73811 21.3252 6.00542 21.0497 6.00542 20.71C6.00542 20.3702 5.73811 20.0947 5.40839 20.0947Z" fill="#F3E3B4"/>
<path d="M20.135 15.501C19.8052 15.501 19.5379 15.7764 19.5379 16.1162V19.0553C19.5379 19.6285 19.0854 20.0947 18.5293 20.0947H15.6771C15.3474 20.0947 15.0801 20.3702 15.0801 20.71C15.0801 21.0497 15.3474 21.3252 15.6771 21.3252H18.5293C19.7439 21.3252 20.732 20.3069 20.732 19.0553V16.1162C20.732 15.7764 20.4647 15.501 20.135 15.501Z" fill="#F3E3B4"/>
<path d="M13.9515 4.83691H15.8451C16.1037 4.83691 16.3141 5.05368 16.3141 5.32016V7.27144C16.3141 7.61121 16.5814 7.88667 16.9111 7.88667C17.2408 7.88667 17.5081 7.61121 17.5081 7.27144V5.32016C17.5081 4.3752 16.7621 3.60645 15.8451 3.60645H13.9515C13.6218 3.60645 13.3545 3.88191 13.3545 4.22168C13.3545 4.56145 13.6218 4.83691 13.9515 4.83691Z" fill="#F3E3B4"/>
<path d="M3.57764 5.32016V7.27144C3.57764 7.61121 3.84495 7.88667 4.17467 7.88667C4.50439 7.88667 4.7717 7.61121 4.7717 7.27144V5.32016C4.7717 5.05368 4.9821 4.83691 5.24065 4.83691H7.13424C7.46396 4.83691 7.73127 4.56145 7.73127 4.22168C7.73127 3.88191 7.46396 3.60645 7.13424 3.60645H5.24065C4.32369 3.60645 3.57764 4.3752 3.57764 5.32016Z" fill="#F3E3B4"/>
<path d="M7.13424 16.7314H5.24065C4.98206 16.7314 4.7717 16.5146 4.7717 16.2482V14.2969C4.7717 13.9571 4.50439 13.6816 4.17467 13.6816C3.84495 13.6816 3.57764 13.9571 3.57764 14.2969V16.2482C3.57764 17.1931 4.32369 17.9619 5.24065 17.9619H7.13424C7.46396 17.9619 7.73127 17.6864 7.73127 17.3466C7.73127 17.0069 7.46396 16.7314 7.13424 16.7314Z" fill="#F3E3B4"/>
<path d="M17.5081 16.2482V14.2969C17.5081 13.9571 17.2408 13.6816 16.9111 13.6816C16.5814 13.6816 16.3141 13.9571 16.3141 14.2969V16.2482C16.3141 16.5146 16.1037 16.7314 15.8451 16.7314H13.9515C13.6218 16.7314 13.3545 17.0069 13.3545 17.3466C13.3545 17.6864 13.6218 17.9619 13.9515 17.9619H15.8451C16.7621 17.9619 17.5081 17.1931 17.5081 16.2482Z" fill="#F3E3B4"/>
<path d="M0.394531 10.8252C0.394531 11.165 0.661843 11.4404 0.991564 11.4404H20.0966C20.4263 11.4404 20.6936 11.165 20.6936 10.8252C20.6936 10.4854 20.4263 10.21 20.0966 10.21H0.991564C0.661843 10.21 0.394531 10.4854 0.394531 10.8252Z" fill="#F3E3B4"/>
</g>
<defs>
<clipPath id="clip0">
<rect width="20.3787" height="21" fill="white" transform="translate(0.353516 0.325195)"/>
</clipPath>
</defs>
</svg>
