<svg width="24" height="24" viewBox="0 0 24 24" fill="none" xmlns="http://www.w3.org/2000/svg">
<path d="M18.9918 19.29L17.9625 7.76967C17.9345 7.45506 17.6721 7.21408 17.3578 7.21408H15.2353V6.25195C15.2353 4.45882 13.7838 3 11.9998 3C10.2158 3 8.7645 4.45882 8.7645 6.25195V7.21408H6.64045C6.32621 7.21408 6.06385 7.45506 6.03576 7.76967L5.00243 19.3353C4.98721 19.506 5.04404 19.6751 5.15907 19.8016C5.2741 19.928 5.43672 20 5.60712 20H18.3913C18.3917 20 18.3924 20 18.3929 20C18.7283 20 19 19.7268 19 19.3898C18.9999 19.3559 18.9972 19.3225 18.9918 19.29ZM9.97876 6.25195C9.97876 5.13173 10.8854 4.22036 11.9998 4.22036C13.1144 4.22036 14.0211 5.13173 14.0211 6.25195V7.21408H9.97876V6.25195ZM6.27124 18.7797L7.19553 8.43444H8.7645V9.52561C8.7645 9.8626 9.03625 10.1358 9.37163 10.1358C9.70701 10.1358 9.97876 9.8626 9.97876 9.52561V8.43444H14.0211V9.52561C14.0211 9.8626 14.2928 10.1358 14.6282 10.1358C14.9636 10.1358 15.2353 9.8626 15.2353 9.52561V8.43444H16.8029L17.7271 18.7797H6.27124Z" fill="#0D794C"/>
</svg>
