<svg width="53" height="53" viewBox="0 0 53 53" fill="none" xmlns="http://www.w3.org/2000/svg">
<path fill-rule="evenodd" clip-rule="evenodd" d="M0 26.5C0 11.8654 11.8654 0 26.5 0C41.1346 0 53 11.8654 53 26.5C53 41.1346 41.1346 53 26.5 53C11.8654 53 0 41.1346 0 26.5ZM24.4022 38.4593L41.0588 21.9697C41.9203 21.1169 41.9203 19.7384 41.0588 18.8855C40.1973 18.0327 38.8049 18.0327 37.9434 18.8855L22.8445 33.833L16.7943 27.8436C15.9328 26.9907 14.5404 26.9907 13.6789 27.8436C12.8174 28.6964 12.8174 30.0749 13.6789 30.9277L21.2868 38.4593C21.6988 38.8693 22.2606 39.0984 22.8445 39.0984C23.4283 39.0984 23.9879 38.8693 24.4022 38.4593Z" fill="#F3E3B4"/>
</svg>
