<svg width="46" height="46" viewBox="0 0 46 46" fill="none" xmlns="http://www.w3.org/2000/svg">
<path d="M0.766666 6.13333C2.88286 6.13595 4.59738 7.85047 4.6 9.96666C4.6 10.39 4.94327 10.7333 5.36666 10.7333C5.79005 10.7333 6.13333 10.39 6.13333 9.96666C6.13595 7.85047 7.85047 6.13595 9.96666 6.13333C10.39 6.13333 10.7333 5.79005 10.7333 5.36666C10.7333 4.94327 10.39 4.6 9.96666 4.6C7.85047 4.59738 6.13595 2.88286 6.13333 0.766666C6.13333 0.343278 5.79005 0 5.36666 0C4.94327 0 4.6 0.343278 4.6 0.766666C4.59738 2.88286 2.88286 4.59738 0.766666 4.6C0.343278 4.6 0 4.94327 0 5.36666C0 5.79005 0.343278 6.13333 0.766666 6.13333ZM5.36666 3.52861C5.82075 4.28143 6.4519 4.91258 7.20471 5.36666C6.4519 5.82075 5.82075 6.4519 5.36666 7.20471C4.91258 6.4519 4.28143 5.82075 3.52861 5.36666C4.28143 4.91258 4.91258 4.28143 5.36666 3.52861Z" fill="#F3E3B4"/>
<path d="M40.6335 35.2666C40.2101 35.2666 39.8668 35.6099 39.8668 36.0333C39.8642 38.1495 38.1497 39.864 36.0335 39.8666C35.6101 39.8666 35.2668 40.2099 35.2668 40.6333C35.2668 41.0567 35.6101 41.3999 36.0335 41.3999C38.1497 41.4026 39.8642 43.1171 39.8668 45.2333C39.8668 45.6566 40.2101 45.9999 40.6335 45.9999C41.0569 45.9999 41.4002 45.6566 41.4002 45.2333C41.4028 43.1171 43.1173 41.4026 45.2335 41.3999C45.6569 41.3999 46.0002 41.0567 46.0002 40.6333C46.0002 40.2099 45.6569 39.8666 45.2335 39.8666C43.1173 39.864 41.4028 38.1495 41.4002 36.0333C41.4002 35.6099 41.0569 35.2666 40.6335 35.2666ZM42.4716 40.6333C41.7187 41.0873 41.0876 41.7185 40.6335 42.4713C40.1794 41.7185 39.5483 41.0873 38.7955 40.6333C39.5483 40.1792 40.1794 39.548 40.6335 38.7952C41.0876 39.548 41.7187 40.1792 42.4716 40.6333Z" fill="#F3E3B4"/>
<circle cx="22.9521" cy="22.9526" r="17.5854" fill="#6C1327" stroke="#6C1327" stroke-width="1.5"/>
<path d="M21.509 29.4366C21.6395 29.4985 21.7837 29.5259 21.9349 29.4985C21.9417 29.4985 21.9417 29.4916 21.9486 29.4916C22.1478 28.9146 22.1547 28.1864 21.8181 27.5064C21.5227 26.9087 21.0968 26.5584 20.6091 26.3936C20.6022 26.3936 20.5953 26.4004 20.6022 26.4073C20.9182 26.6202 21.1792 26.9156 21.3647 27.2866C21.715 28.0078 21.7082 28.7772 21.4883 29.3817C21.4746 29.4023 21.4884 29.4298 21.509 29.4366Z" fill="#F3E3B4"/>
<path d="M25.1305 13.4991L25.1443 13.5403V13.5471C24.6703 13.87 24.2169 14.7287 24.478 15.711C24.7733 16.8169 26.0235 21.4743 26.4563 23.0955L26.9303 24.8609C27.2257 25.9737 27.6378 26.5851 28.2149 26.6744C28.2149 26.6744 28.2217 26.6744 28.2217 26.6812L28.2355 26.7225V26.7293C27.9401 27.0178 27.6928 27.7391 27.3905 28.3986C27.0814 29.0718 26.422 31.1119 23.9284 32.0668C21.2082 33.104 18.4467 32.4514 17.2789 30.528C16.5164 29.271 16.7019 27.5605 17.9384 26.8667C19.0169 26.2622 20.1709 26.6606 20.6105 27.5468C21.0364 28.4054 20.7411 29.3259 20.3907 29.6282C20.322 29.69 20.3907 29.8136 20.5556 29.9235C21.2837 30.425 22.108 30.3975 22.898 29.9716C23.9147 29.4358 24.2787 28.5085 23.7498 26.537C23.317 24.9158 21.3868 17.7305 21.0914 16.6177C20.8304 15.6354 19.9992 15.1202 19.429 15.079C19.429 15.079 19.4222 15.079 19.4222 15.0721L19.4084 15.0309C19.4084 15.024 19.4084 15.024 19.4153 15.024L25.1237 13.4922C25.1237 13.4922 25.1305 13.4991 25.1305 13.4991Z" fill="#F3E3B4"/>
<path d="M28.6674 27.4367C28.3446 28.2541 27.8706 29.4357 27.3348 30.2806C27.3279 30.2874 27.3416 30.2943 27.3485 30.2874C27.9324 29.8203 28.53 28.9067 28.8529 28.0961C29.059 27.5741 29.5055 26.5093 29.6841 26.3307C29.6909 26.3239 29.6909 26.3101 29.6772 26.3033C29.3337 26.2002 28.6193 26.1178 28.1934 24.531C28.1934 24.531 26.064 16.5901 25.7686 15.4841C25.535 14.6186 25.7411 14.0897 26.0502 13.7393C26.0571 13.7325 26.0502 13.7256 26.0434 13.7256C25.4732 13.9042 25.1023 14.7491 25.3564 15.7177C25.6518 16.8236 27.7469 24.6409 27.7469 24.6409C27.8843 25.1561 28.0629 25.5682 28.2759 25.8568C28.482 26.1453 28.7705 26.3651 29.0452 26.4269C29.0727 26.4338 29.1139 26.4338 29.1483 26.4406C29.162 26.4406 29.1689 26.4612 29.1551 26.4681C29.1414 26.4819 29.1277 26.5025 29.1071 26.5162C28.9697 26.6879 28.8254 27.0383 28.6674 27.4367Z" fill="#F3E3B4"/>
<path d="M29.4367 24.6885V23.8985H29.1414V23.6787H29.9794V23.8985H29.684V24.6885H29.4367Z" fill="#F3E3B4"/>
<path d="M30.9621 24.6885V23.926L30.7217 24.6885H30.5843L30.3438 23.926V24.6885H30.124V23.6787H30.5018L30.6736 24.3107L30.8522 23.6787H31.2025V24.6885H30.9621Z" fill="#F3E3B4"/>
<path d="M9.14318 28.4947C8.74103 28.4947 8.37105 28.2454 8.24236 27.8433C6.93939 23.9102 7.23698 19.7118 9.09492 16.0039C10.9529 12.3041 14.1379 9.54535 18.0709 8.24238C18.5696 8.07348 19.1085 8.34694 19.2774 8.84561C19.4463 9.34428 19.1728 9.88316 18.6742 10.0521C11.548 12.4087 7.67935 20.1219 10.044 27.24C10.2129 27.7387 9.93944 28.2776 9.44077 28.4465C9.34425 28.4787 9.23969 28.4947 9.14318 28.4947Z" fill="#F3E3B4"/>
<path d="M27.5365 37.7196C27.1344 37.7196 26.7644 37.4703 26.6357 37.0681C26.4668 36.5694 26.7402 36.0306 27.2389 35.8616C30.6894 34.7195 33.4803 32.2986 35.1131 29.0492C36.7458 25.7998 37.0112 22.1161 35.8611 18.6656C35.6922 18.167 35.9656 17.6281 36.4643 17.4592C36.963 17.2903 37.5018 17.5637 37.6707 18.0624C38.9737 21.9955 38.6761 26.1939 36.8182 29.9018C34.9602 33.6016 31.7752 36.3603 27.8421 37.6633C27.7376 37.7035 27.6411 37.7196 27.5365 37.7196Z" fill="#F3E3B4"/>
</svg>
